<svg t="1736562486480" class="icon" viewBox="0 0 1024 1024" version="1.1"
    xmlns="http://www.w3.org/2000/svg" p-id="20197" width="128" height="64">
    <path
        d="M712.704 106.496H311.296c-30.72 0-55.296 25.088-55.296 55.296v699.904c0 30.72 25.088 55.296 55.296 55.296h400.896c30.72 0 55.296-24.576 55.808-55.296V162.304c0-30.72-24.576-55.808-55.296-55.808z m-401.408 43.008h400.896c7.168 0 12.8 5.632 12.8 12.8v154.112H298.496V162.304c0-7.168 6.144-12.8 12.8-12.8z m409.6 209.408V670.72H299.52V358.912h421.376z m-8.192 515.584H311.296c-7.168 0-12.8-5.632-12.8-12.8v-147.968h426.496v147.968c0.512 7.168-5.632 12.8-12.288 12.8z"
        p-id="20198"></path>
    <path
        d="M641.536 565.76V466.944h-74.752v98.816H457.216V466.944H382.464v98.816h-47.104v66.56h348.672v-66.56z"
        p-id="20199"></path>
</svg>