<svg t="1736501017975" class="icon" viewBox="0 0 1024 1024" version="1.1"
    xmlns="http://www.w3.org/2000/svg" p-id="7087" width="32" height="32">
    <path
        d="M96 64a32 32 0 0 0-32 32v832a32 32 0 0 0 32 32h832a32 32 0 0 0 32-32V96a32 32 0 0 0-32-32H96z m16 848v-800h800v800h-800z"
        fill="#B4B4DB" p-id="7088"></path>
    <path
        d="M352.128 356.8V241.696a17.504 17.504 0 0 0-17.28-17.696 17.504 17.504 0 0 0-17.28 17.696v115.104a72.736 72.736 0 0 0-54.208 70.72c0 17.856 6.56 34.08 17.024 46.784l-54.528 110.24a17.92 17.92 0 0 0 7.616 23.776 17.216 17.216 0 0 0 23.232-7.776l52-105.152c8.128 3.264 16.896 5.216 26.144 5.216 39.392 0 71.456-32.8 71.456-73.088 0-34.208-23.104-62.752-54.176-70.72z m-17.28 108.384A37.344 37.344 0 0 1 297.92 427.52c0-20.8 16.576-37.696 36.928-37.696 20.352 0 36.928 16.896 36.928 37.696 0 20.8-16.544 37.696-36.928 37.696z m210.016-108.384V241.696a17.504 17.504 0 0 0-17.28-17.696 17.504 17.504 0 0 0-17.28 17.696v115.104a72.736 72.736 0 0 0-54.176 70.72c0 34.176 23.136 62.72 54.176 70.688v284.096c0 9.76 7.744 17.696 17.28 17.696 9.568 0 17.28-7.936 17.28-17.696v-284.128a72.736 72.736 0 0 0 54.208-70.72c0-34.144-23.136-62.688-54.208-70.656z m-17.28 108.384a37.376 37.376 0 0 1-36.896-37.696c0-20.8 16.576-37.696 36.928-37.696 20.352 0 36.928 16.896 36.928 37.696 0 20.8-16.576 37.696-36.928 37.696z m-192.736 109.664a17.504 17.504 0 0 0-17.28 17.696v189.76c0 9.76 7.744 17.696 17.28 17.696 9.536 0 17.28-7.936 17.28-17.696v-189.76a17.504 17.504 0 0 0-17.28-17.696z m410.944-218.016V241.664a17.504 17.504 0 0 0-17.28-17.696 17.504 17.504 0 0 0-17.28 17.696v115.104a72.736 72.736 0 0 0-54.176 70.688c0 17.888 6.56 34.08 17.056 46.816l-54.528 110.24a17.92 17.92 0 0 0 7.584 23.776 17.216 17.216 0 0 0 23.232-7.776l52-105.184c8.128 3.296 16.864 5.216 26.112 5.216 39.424 0 71.488-32.768 71.488-73.088 0-34.176-23.136-62.72-54.208-70.688z m-17.28 108.352c-20.32 0-36.896-16.896-36.896-37.696 0-20.8 16.576-37.696 36.928-37.696 20.352 0 36.896 16.896 36.896 37.696 0 20.8-16.544 37.696-36.928 37.696z m0 109.664a17.504 17.504 0 0 0-17.28 17.696v189.76c0 9.76 7.744 17.696 17.28 17.696 9.568 0 17.28-7.936 17.28-17.696v-189.76a17.504 17.504 0 0 0-17.28-17.696z"
        fill="#B4B4DB" p-id="7089"></path>
</svg>